<?xml version="1.0" encoding="UTF-8" standalone="no"?><!-- Generator: Gravit.io --><svg xmlns="http://www.w3.org/2000/svg" xmlns:xlink="http://www.w3.org/1999/xlink" style="isolation:isolate" viewBox="0 0 232 68" width="232pt" height="68pt"><defs><clipPath id="_clipPath_iIsPMj3Mc7RFB6FHI7DJol173mGbTnIC"><rect width="232" height="68"/></clipPath></defs><g clip-path="url(#_clipPath_iIsPMj3Mc7RFB6FHI7DJol173mGbTnIC)"><path d=" M 18.664 37.456 L 18.664 37.456 L 18.664 37.456 Q 18.664 34.672 19.528 32.248 L 19.528 32.248 L 19.528 32.248 Q 20.392 29.824 21.952 28.048 L 21.952 28.048 L 21.952 28.048 Q 23.512 26.272 25.696 25.264 L 25.696 25.264 L 25.696 25.264 Q 27.88 24.256 30.472 24.256 L 30.472 24.256 L 30.472 24.256 Q 32.632 24.256 34.384 25 L 34.384 25 L 34.384 25 Q 36.136 25.744 37.432 26.848 L 37.432 26.848 L 37.432 24.832 L 41.368 24.832 L 41.368 43.744 L 41.368 43.744 Q 41.368 45.568 42.256 46.12 L 42.256 46.12 L 42.256 46.12 Q 43.144 46.672 44.2 46.672 L 44.2 46.672 L 43.288 50.032 L 43.288 50.032 Q 38.68 50.032 37.72 46.288 L 37.72 46.288 L 37.72 46.288 Q 37.144 47.056 36.4 47.8 L 36.4 47.8 L 36.4 47.8 Q 35.656 48.544 34.696 49.12 L 34.696 49.12 L 34.696 49.12 Q 33.736 49.696 32.536 50.032 L 32.536 50.032 L 32.536 50.032 Q 31.336 50.368 29.896 50.368 L 29.896 50.368 L 29.896 50.368 Q 27.544 50.368 25.504 49.456 L 25.504 49.456 L 25.504 49.456 Q 23.464 48.544 21.952 46.864 L 21.952 46.864 L 21.952 46.864 Q 20.44 45.184 19.552 42.808 L 19.552 42.808 L 19.552 42.808 Q 18.664 40.432 18.664 37.456 Z  M 30.856 46.528 L 30.856 46.528 L 30.856 46.528 Q 32.68 46.528 34.312 45.664 L 34.312 45.664 L 34.312 45.664 Q 35.944 44.8 37.048 43.408 L 37.048 43.408 L 37.048 30.016 L 37.048 30.016 Q 35.752 29.104 34.192 28.552 L 34.192 28.552 L 34.192 28.552 Q 32.632 28 30.904 28 L 30.904 28 L 30.904 28 Q 29.176 28 27.736 28.672 L 27.736 28.672 L 27.736 28.672 Q 26.296 29.344 25.264 30.568 L 25.264 30.568 L 25.264 30.568 Q 24.232 31.792 23.656 33.52 L 23.656 33.52 L 23.656 33.52 Q 23.08 35.248 23.08 37.312 L 23.08 37.312 L 23.08 37.312 Q 23.08 39.328 23.656 41.032 L 23.656 41.032 L 23.656 41.032 Q 24.232 42.736 25.288 43.96 L 25.288 43.96 L 25.288 43.96 Q 26.344 45.184 27.76 45.856 L 27.76 45.856 L 27.76 45.856 Q 29.176 46.528 30.856 46.528 Z  M 55.672 49.792 L 45.64 25.984 L 49.576 24.352 L 58.072 44.896 L 66.568 24.352 L 70.264 25.984 L 60.184 49.792 L 55.672 49.792 L 55.672 49.792 Z  M 93.832 39.088 L 76.36 39.088 L 76.36 39.088 Q 76.792 42.592 78.808 44.56 L 78.808 44.56 L 78.808 44.56 Q 80.824 46.528 84.136 46.528 L 84.136 46.528 L 84.136 46.528 Q 86.296 46.528 88.024 46.072 L 88.024 46.072 L 88.024 46.072 Q 89.752 45.616 91.336 44.896 L 91.336 44.896 L 92.344 48.592 L 92.344 48.592 Q 90.616 49.408 88.456 49.888 L 88.456 49.888 L 88.456 49.888 Q 86.296 50.368 83.608 50.368 L 83.608 50.368 L 83.608 50.368 Q 80.92 50.368 78.76 49.48 L 78.76 49.48 L 78.76 49.48 Q 76.6 48.592 75.088 46.936 L 75.088 46.936 L 75.088 46.936 Q 73.576 45.28 72.76 42.856 L 72.76 42.856 L 72.76 42.856 Q 71.944 40.432 71.944 37.312 L 71.944 37.312 L 71.944 37.312 Q 71.944 34.528 72.76 32.128 L 72.76 32.128 L 72.76 32.128 Q 73.576 29.728 75.064 27.976 L 75.064 27.976 L 75.064 27.976 Q 76.552 26.224 78.616 25.24 L 78.616 25.24 L 78.616 25.24 Q 80.68 24.256 83.224 24.256 L 83.224 24.256 L 83.224 24.256 Q 85.912 24.256 87.928 25.168 L 87.928 25.168 L 87.928 25.168 Q 89.944 26.08 91.288 27.664 L 91.288 27.664 L 91.288 27.664 Q 92.632 29.248 93.304 31.36 L 93.304 31.36 L 93.304 31.36 Q 93.976 33.472 93.976 35.824 L 93.976 35.824 L 93.976 35.824 Q 93.976 37.504 93.832 39.088 L 93.832 39.088 L 93.832 39.088 Z  M 83.128 28 L 83.128 28 L 83.128 28 Q 80.296 28 78.496 29.92 L 78.496 29.92 L 78.496 29.92 Q 76.696 31.84 76.312 35.584 L 76.312 35.584 L 89.992 35.584 L 89.992 35.584 Q 89.992 31.936 88.168 29.968 L 88.168 29.968 L 88.168 29.968 Q 86.344 28 83.128 28 Z  M 97.576 47.776 L 99.4 44.176 L 99.4 44.176 Q 100.648 45.28 102.544 45.952 L 102.544 45.952 L 102.544 45.952 Q 104.44 46.624 106.6 46.624 L 106.6 46.624 L 106.6 46.624 Q 109.288 46.624 110.656 45.736 L 110.656 45.736 L 110.656 45.736 Q 112.024 44.848 112.024 43.456 L 112.024 43.456 L 112.024 43.456 Q 112.024 42.736 111.76 42.112 L 111.76 42.112 L 111.76 42.112 Q 111.496 41.488 110.8 40.912 L 110.8 40.912 L 110.8 40.912 Q 110.104 40.336 108.904 39.784 L 108.904 39.784 L 108.904 39.784 Q 107.704 39.232 105.784 38.56 L 105.784 38.56 L 105.784 38.56 Q 102.232 37.36 100.504 35.704 L 100.504 35.704 L 100.504 35.704 Q 98.776 34.048 98.776 31.12 L 98.776 31.12 L 98.776 31.12 Q 98.776 29.68 99.424 28.432 L 99.424 28.432 L 99.424 28.432 Q 100.072 27.184 101.296 26.248 L 101.296 26.248 L 101.296 26.248 Q 102.52 25.312 104.272 24.784 L 104.272 24.784 L 104.272 24.784 Q 106.024 24.256 108.28 24.256 L 108.28 24.256 L 108.28 24.256 Q 110.728 24.256 112.576 24.76 L 112.576 24.76 L 112.576 24.76 Q 114.424 25.264 115.912 26.032 L 115.912 26.032 L 114.712 29.584 L 114.712 29.584 Q 113.416 28.816 111.76 28.336 L 111.76 28.336 L 111.76 28.336 Q 110.104 27.856 108.088 27.856 L 108.088 27.856 L 108.088 27.856 Q 105.592 27.856 104.296 28.864 L 104.296 28.864 L 104.296 28.864 Q 103 29.872 103 31.072 L 103 31.072 L 103 31.072 Q 103 31.648 103.216 32.128 L 103.216 32.128 L 103.216 32.128 Q 103.432 32.608 104.008 33.04 L 104.008 33.04 L 104.008 33.04 Q 104.584 33.472 105.544 33.904 L 105.544 33.904 L 105.544 33.904 Q 106.504 34.336 107.944 34.816 L 107.944 34.816 L 107.944 34.816 Q 110.296 35.632 111.928 36.472 L 111.928 36.472 L 111.928 36.472 Q 113.56 37.312 114.568 38.32 L 114.568 38.32 L 114.568 38.32 Q 115.576 39.328 116.008 40.504 L 116.008 40.504 L 116.008 40.504 Q 116.44 41.68 116.44 43.12 L 116.44 43.12 L 116.44 43.12 Q 116.44 44.8 115.72 46.144 L 115.72 46.144 L 115.72 46.144 Q 115 47.488 113.704 48.424 L 113.704 48.424 L 113.704 48.424 Q 112.408 49.36 110.56 49.864 L 110.56 49.864 L 110.56 49.864 Q 108.712 50.368 106.456 50.368 L 106.456 50.368 L 106.456 50.368 Q 103.576 50.368 101.32 49.648 L 101.32 49.648 L 101.32 49.648 Q 99.064 48.928 97.576 47.776 L 97.576 47.776 L 97.576 47.776 Z  M 123.256 25.744 L 124.168 17.872 L 127.48 17.872 L 127.48 25.744 L 134.392 25.744 L 134.392 29.488 L 127.48 29.488 L 127.48 41.536 L 127.48 41.536 Q 127.48 42.928 127.792 43.888 L 127.792 43.888 L 127.792 43.888 Q 128.104 44.848 128.632 45.424 L 128.632 45.424 L 128.632 45.424 Q 129.16 46 129.904 46.264 L 129.904 46.264 L 129.904 46.264 Q 130.648 46.528 131.464 46.528 L 131.464 46.528 L 131.464 46.528 Q 132.664 46.528 133.72 46.144 L 133.72 46.144 L 133.72 46.144 Q 134.776 45.76 135.736 45.232 L 135.736 45.232 L 136.936 48.688 L 136.936 48.688 Q 135.976 49.264 134.344 49.816 L 134.344 49.816 L 134.344 49.816 Q 132.712 50.368 130.936 50.368 L 130.936 50.368 L 130.936 50.368 Q 127.336 50.368 125.248 48.016 L 125.248 48.016 L 125.248 48.016 Q 123.16 45.664 123.16 41.2 L 123.16 41.2 L 123.16 29.488 L 118.84 29.488 L 118.84 25.744 L 123.256 25.744 L 123.256 25.744 Z  M 164.248 46.672 L 163.336 50.032 L 163.336 50.032 Q 161.032 50.032 159.688 49.12 L 159.688 49.12 L 159.688 49.12 Q 158.344 48.208 157.816 46.48 L 157.816 46.48 L 157.816 46.48 Q 156.136 48.208 153.952 49.288 L 153.952 49.288 L 153.952 49.288 Q 151.768 50.368 149.176 50.368 L 149.176 50.368 L 149.176 50.368 Q 147.544 50.368 146.032 49.864 L 146.032 49.864 L 146.032 49.864 Q 144.52 49.36 143.344 48.256 L 143.344 48.256 L 143.344 48.256 Q 142.168 47.152 141.472 45.376 L 141.472 45.376 L 141.472 45.376 Q 140.776 43.6 140.776 41.056 L 140.776 41.056 L 140.776 24.832 L 145.096 24.832 L 145.096 40.48 L 145.096 40.48 Q 145.096 43.408 146.32 44.968 L 146.32 44.968 L 146.32 44.968 Q 147.544 46.528 149.992 46.528 L 149.992 46.528 L 149.992 46.528 Q 152.008 46.528 153.832 45.736 L 153.832 45.736 L 153.832 45.736 Q 155.656 44.944 157.096 43.6 L 157.096 43.6 L 157.096 24.832 L 161.416 24.832 L 161.416 43.312 L 161.416 43.312 Q 161.416 44.368 161.656 45.016 L 161.656 45.016 L 161.656 45.016 Q 161.896 45.664 162.28 46.024 L 162.28 46.024 L 162.28 46.024 Q 162.664 46.384 163.192 46.528 L 163.192 46.528 L 163.192 46.528 Q 163.72 46.672 164.248 46.672 L 164.248 46.672 L 164.248 46.672 Z  M 184.84 24.544 L 183.544 29.008 L 183.544 29.008 Q 182.632 28.624 181.384 28.624 L 181.384 28.624 L 181.384 28.624 Q 180.04 28.624 178.768 29.2 L 178.768 29.2 L 178.768 29.2 Q 177.496 29.776 176.512 30.928 L 176.512 30.928 L 176.512 30.928 Q 175.528 32.08 174.928 33.88 L 174.928 33.88 L 174.928 33.88 Q 174.328 35.68 174.328 38.128 L 174.328 38.128 L 174.328 49.792 L 170.008 49.792 L 170.008 24.832 L 174.184 24.832 L 174.184 30.256 L 174.184 30.256 Q 174.616 29.104 175.336 28 L 175.336 28 L 175.336 28 Q 176.056 26.896 177.04 26.08 L 177.04 26.08 L 177.04 26.08 Q 178.024 25.264 179.32 24.76 L 179.32 24.76 L 179.32 24.76 Q 180.616 24.256 182.2 24.256 L 182.2 24.256 L 182.2 24.256 Q 182.92 24.256 183.616 24.328 L 183.616 24.328 L 183.616 24.328 Q 184.312 24.4 184.84 24.544 L 184.84 24.544 L 184.84 24.544 Z  M 186.04 37.456 L 186.04 37.456 L 186.04 37.456 Q 186.04 34.672 186.904 32.248 L 186.904 32.248 L 186.904 32.248 Q 187.768 29.824 189.328 28.048 L 189.328 28.048 L 189.328 28.048 Q 190.888 26.272 193.072 25.264 L 193.072 25.264 L 193.072 25.264 Q 195.256 24.256 197.848 24.256 L 197.848 24.256 L 197.848 24.256 Q 200.008 24.256 201.76 25 L 201.76 25 L 201.76 25 Q 203.512 25.744 204.808 26.848 L 204.808 26.848 L 204.808 24.832 L 208.744 24.832 L 208.744 43.744 L 208.744 43.744 Q 208.744 45.568 209.632 46.12 L 209.632 46.12 L 209.632 46.12 Q 210.52 46.672 211.576 46.672 L 211.576 46.672 L 210.664 50.032 L 210.664 50.032 Q 206.056 50.032 205.096 46.288 L 205.096 46.288 L 205.096 46.288 Q 204.52 47.056 203.776 47.8 L 203.776 47.8 L 203.776 47.8 Q 203.032 48.544 202.072 49.12 L 202.072 49.12 L 202.072 49.12 Q 201.112 49.696 199.912 50.032 L 199.912 50.032 L 199.912 50.032 Q 198.712 50.368 197.272 50.368 L 197.272 50.368 L 197.272 50.368 Q 194.92 50.368 192.88 49.456 L 192.88 49.456 L 192.88 49.456 Q 190.84 48.544 189.328 46.864 L 189.328 46.864 L 189.328 46.864 Q 187.816 45.184 186.928 42.808 L 186.928 42.808 L 186.928 42.808 Q 186.04 40.432 186.04 37.456 Z  M 198.232 46.528 L 198.232 46.528 L 198.232 46.528 Q 200.056 46.528 201.688 45.664 L 201.688 45.664 L 201.688 45.664 Q 203.32 44.8 204.424 43.408 L 204.424 43.408 L 204.424 30.016 L 204.424 30.016 Q 203.128 29.104 201.568 28.552 L 201.568 28.552 L 201.568 28.552 Q 200.008 28 198.28 28 L 198.28 28 L 198.28 28 Q 196.552 28 195.112 28.672 L 195.112 28.672 L 195.112 28.672 Q 193.672 29.344 192.64 30.568 L 192.64 30.568 L 192.64 30.568 Q 191.608 31.792 191.032 33.52 L 191.032 33.52 L 191.032 33.52 Q 190.456 35.248 190.456 37.312 L 190.456 37.312 L 190.456 37.312 Q 190.456 39.328 191.032 41.032 L 191.032 41.032 L 191.032 41.032 Q 191.608 42.736 192.664 43.96 L 192.664 43.96 L 192.664 43.96 Q 193.72 45.184 195.136 45.856 L 195.136 45.856 L 195.136 45.856 Q 196.552 46.528 198.232 46.528 Z " fill="rgb(74,74,74)"/></g></svg>