<?xml version="1.0" standalone="no"?><!-- Generator: Gravit.io --><svg xmlns="http://www.w3.org/2000/svg" xmlns:xlink="http://www.w3.org/1999/xlink" style="isolation:isolate" viewBox="0 0 232 68" width="232" height="68"><defs><clipPath id="_clipPath_VmaJ6vzyAdzTgRCuOUfUdaMUmAfMhOZd"><rect width="232" height="68"/></clipPath></defs><g clip-path="url(#_clipPath_VmaJ6vzyAdzTgRCuOUfUdaMUmAfMhOZd)"><g filter="url(#Up0QL1eM2dk0W8Vn8veKXzMPNCp71E6z)"><path d=" M 20.034 17.046 L 30.313 10.82 L 40.592 17.046 L 32.774 32.392 L 28.286 32.392 L 20.034 17.046 Z " fill="rgb(242,80,34)" fill-opacity="0.6"/><path d=" M 40.609 22.927 L 42.33 34.227 L 40.265 45.528 L 35.815 39.535 L 32.717 33.542 L 36.663 28.234 L 40.609 22.927 Z " fill="rgb(127,186,0)" fill-opacity="0.6"/><path d=" M 40.592 51.503 L 30.313 57.729 L 20.034 51.503 L 27.852 36.157 L 32.34 36.157 L 40.592 51.503 Z " fill="rgb(255,185,1)" fill-opacity="0.6"/><path d=" M 20.249 45.528 L 18.529 34.227 L 20.594 22.927 L 25.044 28.92 L 28.141 34.913 L 24.195 40.22 L 20.249 45.528 Z " fill="rgb(1,164,239)" fill-opacity="0.6"/><path d=" M 39.289 17.335 L 43.013 19.887 L 33.286 34.535 L 42.843 48.843 L 38.565 50.779 L 31.759 39.455 L 31.759 39.455 Q 31.221 38.578 30.486 37.249 L 30.486 37.249 L 30.373 37.249 L 30.373 37.249 Q 30.232 37.504 29.044 39.455 L 29.044 39.455 L 22.061 50.779 L 17.903 48.843 L 27.771 34.648 L 18.327 19.887 L 22.061 17.335 L 29.327 29.784 L 29.327 29.784 Q 29.949 30.887 30.543 32.046 L 30.543 32.046 L 30.656 32.046 L 39.289 17.335 Z " fill="rgb(44,62,80)"/><path d=" M 47 33.77 L 47 33.77 L 47 33.77 Q 47 40.133 45.851 45.046 L 45.851 45.046 L 45.851 45.046 Q 44.702 49.959 42.529 53.335 L 42.529 53.335 L 42.529 53.335 Q 40.355 56.71 37.191 58.46 L 37.191 58.46 L 37.191 58.46 Q 34.028 60.209 29.998 60.209 L 29.998 60.209 L 29.998 60.209 Q 26.181 60.209 23.194 58.531 L 23.194 58.531 L 23.194 58.531 Q 20.207 56.852 18.157 53.635 L 18.157 53.635 L 18.157 53.635 Q 16.107 50.418 15.047 45.735 L 15.047 45.735 L 15.047 45.735 Q 13.986 41.052 13.986 35.007 L 13.986 35.007 L 13.986 35.007 Q 13.986 28.362 15.1 23.272 L 15.1 23.272 L 15.1 23.272 Q 16.213 18.182 18.369 14.736 L 18.369 14.736 L 18.369 14.736 Q 20.525 11.29 23.724 9.54 L 23.724 9.54 L 23.724 9.54 Q 26.923 7.791 31.059 7.791 L 31.059 7.791 L 31.059 7.791 Q 47 7.791 47 33.77 Z  M 41.062 34.336 L 41.062 34.336 L 41.062 34.336 Q 41.062 12.704 30.776 12.704 L 30.776 12.704 L 30.776 12.704 Q 19.925 12.704 19.925 34.725 L 19.925 34.725 L 19.925 34.725 Q 19.925 55.261 30.564 55.261 L 30.564 55.261 L 30.564 55.261 Q 41.062 55.261 41.062 34.336 Z " fill-rule="evenodd" fill="rgb(44,62,80)"/></g><defs><filter id="Up0QL1eM2dk0W8Vn8veKXzMPNCp71E6z" x="-200%" y="-200%" width="400%" height="400%" filterUnits="objectBoundingBox" color-interpolation-filters="sRGB"><feOffset xmlns="http://www.w3.org/2000/svg" in="SourceGraphic" dx="0" dy="0"/><feGaussianBlur xmlns="http://www.w3.org/2000/svg" stdDeviation="2.146804531419514" result="pf_100_offsetBlur"/><feComposite xmlns="http://www.w3.org/2000/svg" in="SourceGraphic" in2="pf_100_offsetBlur" result="pf_100_inverse" operator="out"/><feFlood xmlns="http://www.w3.org/2000/svg" flood-color="#000000" flood-opacity="0.5" result="pf_100_color"/><feComposite xmlns="http://www.w3.org/2000/svg" in="pf_100_color" in2="pf_100_inverse" operator="in" result="pf_100_shadow"/><feComposite xmlns="http://www.w3.org/2000/svg" in="pf_100_shadow" in2="SourceGraphic" operator="over"/></filter></defs><path d=" M 72.211 17.531 C 65.546 17.531 61.848 23.121 61.848 33.054 C 61.848 42.944 65.417 48.663 72.125 48.663 C 78.79 48.663 82.488 43.073 82.488 33.14 C 82.488 23.25 78.919 17.531 72.211 17.531 Z  M 72.168 21.057 C 76.081 21.057 78.403 25.271 78.403 33.183 C 78.403 42.084 75.995 45.137 72.168 45.137 C 68.255 45.137 65.933 40.923 65.933 33.011 C 65.933 24.11 68.341 21.057 72.168 21.057 Z  M 85.498 46.04 L 88.25 48.448 L 95.689 39.203 L 103.214 48.534 L 106.138 46.04 L 97.968 36.623 L 105.407 27.937 L 102.526 25.486 L 95.732 34.258 L 88.809 25.314 L 85.799 27.937 L 93.453 36.795 L 85.498 46.04 Z  M 108.503 37.096 C 108.503 44.148 112.975 48.663 118.565 48.663 C 122.048 48.663 124.241 46.857 125.574 45.008 C 126.133 47.201 127.767 48.362 130.562 48.362 L 131.379 45.352 C 130.132 45.352 128.842 44.922 128.842 42.729 L 128.842 25.787 L 125.316 25.787 L 125.316 27.593 C 123.768 26.303 121.661 25.271 119.081 25.271 C 112.846 25.271 108.503 30.431 108.503 37.096 Z  M 119.425 45.223 C 115.426 45.223 112.459 41.826 112.459 36.967 C 112.459 31.979 115.34 28.625 119.468 28.625 C 121.532 28.625 123.424 29.356 124.972 30.431 L 124.972 42.428 C 123.639 44.062 121.575 45.223 119.425 45.223 Z  M 149.826 25.529 C 149.224 25.357 148.321 25.271 147.461 25.271 C 143.634 25.271 141.355 27.851 140.28 30.646 L 140.28 25.787 L 136.539 25.787 L 136.539 48.147 L 140.409 48.147 L 140.409 37.698 C 140.409 31.85 143.548 29.184 146.73 29.184 C 147.461 29.184 148.149 29.313 148.665 29.528 L 149.826 25.529 Z  M 154.255 58.123 C 158.555 58.123 161.565 56.145 164.102 49.265 L 172.315 26.819 L 168.746 25.443 L 162.253 43.89 L 153.911 25.271 L 150.471 26.819 L 159.2 46.47 L 161.264 46.47 L 160.275 49.05 C 158.555 53.565 156.749 54.769 154.341 54.769 C 153.051 54.769 152.019 54.425 151.331 54.038 L 150.471 57.263 C 151.202 57.736 152.535 58.123 154.255 58.123 Z  M 174.68 37.096 C 174.68 44.148 179.152 48.663 184.742 48.663 C 188.225 48.663 190.418 46.857 191.751 45.008 C 192.31 47.201 193.944 48.362 196.739 48.362 L 197.556 45.352 C 196.309 45.352 195.019 44.922 195.019 42.729 L 195.019 25.787 L 191.493 25.787 L 191.493 27.593 C 189.945 26.303 187.838 25.271 185.258 25.271 C 179.023 25.271 174.68 30.431 174.68 37.096 Z  M 185.602 45.223 C 181.603 45.223 178.636 41.826 178.636 36.967 C 178.636 31.979 181.517 28.625 185.645 28.625 C 187.709 28.625 189.601 29.356 191.149 30.431 L 191.149 42.428 C 189.816 44.062 187.752 45.223 185.602 45.223 Z  M 206.457 25.787 L 202.716 25.787 L 202.716 48.147 L 206.586 48.147 L 206.586 33.355 C 208.22 30.818 210.671 28.668 213.337 28.668 C 216.046 28.668 217.637 30.775 217.637 34 L 217.637 48.147 L 221.507 48.147 L 221.507 33.57 C 221.507 28.582 219.013 25.271 213.982 25.271 C 210.542 25.271 208.048 27.12 206.457 29.528 L 206.457 25.787 Z " fill-rule="evenodd" fill="rgb(74,74,74)"/></g></svg>