<?xml version="1.0" standalone="no"?><!-- Generator: Gravit.io --><svg xmlns="http://www.w3.org/2000/svg" xmlns:xlink="http://www.w3.org/1999/xlink" style="isolation:isolate" viewBox="0 0 232 68" width="232" height="68"><defs><clipPath id="_clipPath_NzTr6ooXULEor5fdJY0pmegvTn6YjaM6"><rect width="232" height="68"/></clipPath></defs><g clip-path="url(#_clipPath_NzTr6ooXULEor5fdJY0pmegvTn6YjaM6)"><g filter="url(#XVidCBwL31ki0HZ3G6ZWGuTiCnjE2H2Y)"><path d=" M 20.034 17.046 L 30.313 10.82 L 40.592 17.046 L 32.774 32.392 L 28.286 32.392 L 20.034 17.046 Z " fill="rgb(242,80,34)" fill-opacity="0.6"/><path d=" M 40.609 22.927 L 42.33 34.227 L 40.265 45.528 L 35.815 39.535 L 32.717 33.542 L 36.663 28.234 L 40.609 22.927 Z " fill="rgb(127,186,0)" fill-opacity="0.6"/><path d=" M 40.592 51.503 L 30.313 57.729 L 20.034 51.503 L 27.852 36.157 L 32.34 36.157 L 40.592 51.503 Z " fill="rgb(255,185,1)" fill-opacity="0.6"/><path d=" M 20.249 45.528 L 18.529 34.227 L 20.594 22.927 L 25.044 28.92 L 28.141 34.913 L 24.195 40.22 L 20.249 45.528 Z " fill="rgb(1,164,239)" fill-opacity="0.6"/><path d=" M 39.289 17.335 L 43.013 19.887 L 33.286 34.535 L 42.843 48.843 L 38.565 50.779 L 31.759 39.455 L 31.759 39.455 Q 31.221 38.578 30.486 37.249 L 30.486 37.249 L 30.373 37.249 L 30.373 37.249 Q 30.232 37.504 29.044 39.455 L 29.044 39.455 L 22.061 50.779 L 17.903 48.843 L 27.771 34.648 L 18.327 19.887 L 22.061 17.335 L 29.327 29.784 L 29.327 29.784 Q 29.949 30.887 30.543 32.046 L 30.543 32.046 L 30.656 32.046 L 39.289 17.335 Z " fill="rgb(44,62,80)"/><path d=" M 47 33.77 L 47 33.77 L 47 33.77 Q 47 40.133 45.851 45.046 L 45.851 45.046 L 45.851 45.046 Q 44.702 49.959 42.529 53.335 L 42.529 53.335 L 42.529 53.335 Q 40.355 56.71 37.191 58.46 L 37.191 58.46 L 37.191 58.46 Q 34.028 60.209 29.998 60.209 L 29.998 60.209 L 29.998 60.209 Q 26.181 60.209 23.194 58.531 L 23.194 58.531 L 23.194 58.531 Q 20.207 56.852 18.157 53.635 L 18.157 53.635 L 18.157 53.635 Q 16.107 50.418 15.047 45.735 L 15.047 45.735 L 15.047 45.735 Q 13.986 41.052 13.986 35.007 L 13.986 35.007 L 13.986 35.007 Q 13.986 28.362 15.1 23.272 L 15.1 23.272 L 15.1 23.272 Q 16.213 18.182 18.369 14.736 L 18.369 14.736 L 18.369 14.736 Q 20.525 11.29 23.724 9.54 L 23.724 9.54 L 23.724 9.54 Q 26.923 7.791 31.059 7.791 L 31.059 7.791 L 31.059 7.791 Q 47 7.791 47 33.77 Z  M 41.062 34.336 L 41.062 34.336 L 41.062 34.336 Q 41.062 12.704 30.776 12.704 L 30.776 12.704 L 30.776 12.704 Q 19.925 12.704 19.925 34.725 L 19.925 34.725 L 19.925 34.725 Q 19.925 55.261 30.564 55.261 L 30.564 55.261 L 30.564 55.261 Q 41.062 55.261 41.062 34.336 Z " fill-rule="evenodd" fill="rgb(44,62,80)"/></g><defs><filter id="XVidCBwL31ki0HZ3G6ZWGuTiCnjE2H2Y" x="-200%" y="-200%" width="400%" height="400%" filterUnits="objectBoundingBox" color-interpolation-filters="sRGB"><feOffset xmlns="http://www.w3.org/2000/svg" in="SourceGraphic" dx="0" dy="0"/><feGaussianBlur xmlns="http://www.w3.org/2000/svg" stdDeviation="2.146804531419514" result="pf_100_offsetBlur"/><feComposite xmlns="http://www.w3.org/2000/svg" in="SourceGraphic" in2="pf_100_offsetBlur" result="pf_100_inverse" operator="out"/><feFlood xmlns="http://www.w3.org/2000/svg" flood-color="#000000" flood-opacity="0.5" result="pf_100_color"/><feComposite xmlns="http://www.w3.org/2000/svg" in="pf_100_color" in2="pf_100_inverse" operator="in" result="pf_100_shadow"/><feComposite xmlns="http://www.w3.org/2000/svg" in="pf_100_shadow" in2="SourceGraphic" operator="over"/></filter></defs><g transform="matrix(1,0,0,1,59,-0.063)"><text transform="matrix(1,0,0,1,0.268,48.21)" style="font-family:'ABeeZee';font-weight:400;font-size:43px;font-style:normal;fill:#4a4a4a;stroke:none;">0xaryan</text></g></g></svg>